<svg id="svg" viewBox="0 0 714 730" xmlns="http://www.w3.org/2000/svg" xmlns:xlink="http://www.w3.org/1999/xlink" version="1.1" width="892.5" height="912.5" preserveAspectRatio="xMidYMid meet" buffered-rendering="static" style="background: rgb(255, 255, 255);"><g><path d="M 202.2454662447072 54.24002312215957 C 194.95547267929615 53.83301040497181 188.99297267929614 53.8375 188.9954662447072 54.25 C 188.99795981011823 54.6625 191.3625 55.73301405462584 194.25 56.62892012139075 C 197.1375 57.524826188155664 205.35 60.420852757610895 212.5 63.06453472018015 C 219.65 65.70821668274941 229.775 69.63668955462347 235 71.79447443545587 C 240.225 73.95225931628826 249.9 78.24341534232585 256.5 81.3303767155394 C 263.1 84.41733808875296 274.8 90.260720412695 282.5 94.31567076874393 C 290.2 98.37062112479286 301.225 104.52106219214161 307 107.98331758507447 C 312.775 111.44557297800735 322 117.20316621995593 327.5 120.77796923384909 C 333 124.35277224774225 340.875 129.76204402503868 345 132.79857318339668 C 349.125 135.8351023417547 356.8875 141.84763984936416 362.25 146.15976764475107 C 367.6125 150.47189544013798 372 153.775 372 153.5 C 372 153.225 370.83283280961695 151.3125 369.40629513248206 149.25 C 367.97975745534717 147.1875 365.72975745534717 143.3625 364.40629513248206 140.75 C 363.08283280961695 138.1375 361.775 134.2 361.5 132 C 361.0679012345679 128.54320987654322 361.4074074074074 127.5925925925926 364 125 L 367 122 L 374.25 122.00905920981646 C 378.26831202880027 122.01408027626846 386.1803756824272 123.08410945690302 392 124.40957300593047 C 397.775 125.72487302839413 408.8 129.14291465005434 416.5 132.00522105406426 C 424.2 134.8675274580742 438.825 141.00591101682437 449 145.64607340684242 C 459.175 150.28623579686047 475.15 158.17779404595726 484.5 163.18286951594638 C 493.85 168.18794498593553 507.575 175.91288932425087 515 180.34941248998047 C 522.425 184.7859356557101 533.225 191.53804351762432 539 195.35409662756763 C 544.775 199.1701497375109 555.5660772131704 206.83909063219411 562.980171584823 212.39618750464138 C 570.3942659564756 217.9532843770886 581.3067659564756 227.1125 587.230171584823 232.75 L 598 243 L 603.25 237.3657484191458 C 606.1375 234.26691004967603 608.6433684135626 231.45441004967603 608.8185964745836 231.1157484191458 C 608.9938245356046 230.7770867886156 607.0159981511651 223.975 604.4234267313848 216 C 600.6293817128184 204.32915120786535 599.6892066758332 200.0366459269662 599.604830256801 194 C 599.5471736155605 189.875 599.868172039869 185.375 600.3181600885978 184 L 601.1363201771956 181.5 L 586.8181600885978 175.0760520285084 C 578.943172039869 171.542880644188 563.95 164.87040766311102 553.5 160.2483342927818 C 543.05 155.62626092245256 532.475 151.02126725464564 530 150.01501503098865 C 527.525 149.00876280733166 522.125 146.75134208147233 518 144.99852452907902 C 513.875 143.2457069766857 501.05 137.98157107242326 489.5 133.30044474182915 C 477.95 128.619318411235 461.975 122.32226086841973 454 119.30698353557295 C 446.025 116.29170620272617 429.6 110.31839425589435 417.5 106.03295698705776 C 405.4 101.74751971822118 386.95 95.53331466409286 376.5 92.22361242232813 C 366.05 88.9139101805634 352.55 84.77662750197045 346.5 83.02965091434379 C 340.45 81.28267432671711 332.575 79.00812579281234 329 77.97509861677761 C 325.425 76.9420714407429 314.4 74.09993268713303 304.5 71.65923471986683 C 294.6 69.21853675260063 279.525 65.79284071951706 271 64.04657686857001 C 262.475 62.300313017622976 246.5 59.545962960870014 235.5 57.92579896467454 C 224.5 56.30563496847907 209.53545981011823 54.64703583934733 202.2454662447072 54.24002312215957 Z " class="odd" fill="#ff6600"></path><path d="M 753.25 122.09286824747105 C 752.8375 122.14394578358012 747.55 124.99048221712867 741.5 128.41850476646783 C 735.45 131.84652731580698 722.4 139.173352727176 712.5 144.70033901395453 C 702.6 150.22732530073304 687.525 158.63603540074484 679 163.3863614584252 C 670.475 168.13668751610555 663.1625 172.01807139337456 662.75 172.01165896346745 C 662.3375 172.00524653356035 662 172.45 662 173 C 662 173.5849917076944 663.556281096146 173.77565549970996 665.75 173.459421644219 C 667.8125 173.16210354853945 674.45 172.29311744603666 680.5 171.52834141643507 C 686.55 170.76356538683345 691.6322465351049 170.2193256469349 691.7938811891219 170.31891977221608 C 691.9555158431389 170.41851389749723 686.3067565103725 175.675 679.2410826718631 182 C 672.1754088333537 188.325 649.798638222254 208.35 629.5149257583082 226.5 C 609.2312132943623 244.65 588.0782608788378 263.55 582.5083648349203 268.5 C 576.9384687910028 273.45 564.5329928669977 284.4951052775717 554.9406405593534 293.0446783946038 C 545.348288251709 301.59425151163595 514.55 328.80528438583144 486.5 353.51364033726054 C 458.45 378.2219962886896 435.275 398.67689101111785 435 398.9689619426567 C 434.725 399.2610328741955 430.9 402.6739744346391 426.5 406.55327652142023 C 422.1 410.4325786082013 408.15 422.7724034408943 395.5 433.9751094829602 C 382.85 445.17781552502606 372.3827109717988 454.3788410903869 372.2393577151085 454.42183296153996 C 372.0960044584182 454.464824832693 372.2085044584182 455.2875 372.4893577151085 456.25 C 372.7702109717988 457.2125 373.5625 458.00073763383796 374.25 458.00163918630665 C 374.9375 458.0025407387753 391.475 443.7664939521296 411 426.36597966042746 C 430.525 408.9654653687253 456.6074080871182 385.6772277348873 468.96090686026264 374.6143404741208 C 481.3144056334071 363.55145321335436 497.96440563340707 348.684258009551 505.96090686026264 341.5761289101133 C 513.9574080871182 334.4679998106756 524.325 325.1958317208887 529 320.971310932809 C 533.675 316.7467901447293 544.25 307.30722893237214 552.5 299.99450823868204 C 560.75 292.68178754499195 570.875 283.68329948754666 575 279.9978681110259 C 579.125 276.3124367345052 593.9789492261747 263.2177399373113 608.008776058166 250.89854189503956 C 622.0386028901571 238.5793438527678 641.1554395608132 221.75 650.4906353262904 213.5 C 659.8258310917676 205.25 673.659381865593 192.9875 681.2318592681245 186.25 C 690.3697373298943 178.11970786857788 695.0019806506576 174.5885296955111 695.0058894881215 175.75 C 695.0091287065884 176.7125 693.6578756383557 183.8 692.0031048920489 191.5 C 690.348334145742 199.2 689.1081838760873 205.61146127211393 689.2472154039274 205.7476917158087 C 689.3862469317673 205.8839221595035 702.1 189.74497991344145 717.5 169.8833756134486 C 732.9 150.02177131345576 747.3984952954575 131.46031004134184 749.7188784343498 128.6356838976399 C 752.0392615732422 125.81105775393794 753.9517615732423 123.1625 753.9688784343498 122.75 C 753.9859952954574 122.3375 753.6625 122.04179071136197 753.25 122.09286824747105 Z " class="odd" fill="#ff6600"></path><path d="M 626.5 249.63342578130766 C 625.6311775997352 248.19826287359825 624.7129344015888 248.6553727828097 619.5 253.1180901610047 C 616.2 255.94317219993368 611.8125 259.7723172932695 609.75 261.6273014795287 L 606 265 L 607.8688041622297 267.75 C 608.8966464514561 269.2625 610.0216464514561 271.5125 610.3688041622297 272.75 C 610.7159618730034 273.9875 610.4085090667838 276.4625 609.6855757039641 278.25 C 608.9626423411444 280.0375 604.615459975275 285.775 600.0251704464766 291 C 595.4348809176782 296.225 588.2638718508945 304.0311912456913 584.0895947425125 308.3470916570917 C 579.9153176341306 312.66299206849214 573.575 318.5616401664214 570 321.45519854137893 C 566.425 324.34875691633647 559.45 329.11044031527865 554.5 332.0367172056949 C 549.55 334.96299409611123 542.8695937392392 339.864345998182 539.6546527538651 342.92861032140775 C 536.4397117684908 345.99287464463345 532.2921395975859 351.2 530.4378257074097 354.5 C 528.5835118172334 357.8 525.3330973153226 365.675 523.2146823698299 372 C 520.9459333341338 378.77385593474486 517.7472901460252 385.9187566492507 515.4315094162853 389.38549588889475 C 513.2691792373283 392.62251862778686 511.1625 395.43501862778686 510.75 395.63549588889475 C 510.3375 395.83597315000264 509.7542981561015 395.8875 509.45399590244784 395.75 C 509.15369364879416 395.6125 509.8598193157622 390.55 511.02316405126567 384.5 C 512.1865087867692 378.45 512.9947106306677 372.9861332428957 512.8191681488179 372.3580738731015 C 512.6401230402561 371.7174827360556 508.10974236385766 374.03910136631134 502.5 377.6461886551208 C 497 381.1827111550256 488.0517789836969 387.5465779121299 482.6150644082153 391.7881147820193 C 477.1783498327337 396.0296516519087 469.9714691935883 402.425 466.5997740990032 406 C 463.22807900441813 409.575 459.07708199672385 414.525 457.375336304127 417 C 455.67359061153024 419.475 453.5429712506757 422.9625 452.6406266133391 424.75 C 451.7382819760026 426.5375 449.91295469489216 432.8375 448.58434376642697 438.75 C 447.2557328379618 444.6625 445.2445890516986 451.975 444.11513535250873 455 C 442.98568165331886 458.025 441.33599116758654 461.4 440.44915649532584 462.5 L 438.83672981848815 464.5 L 439.55761356242317 462.5 C 439.95409962158743 461.4 440.38356100752173 455.55 440.5119721978328 449.5 C 440.64038338814385 443.45 441.0277214942132 437.4875 441.3727235446537 436.25 L 442 434 L 437.75 434.56927816241523 C 435.4125 434.88238115174363 430.8 435.8072510887251 427.5 436.62454468904076 C 424.2 437.44183828935644 418.575 439.2812006147498 415 440.71201652324834 C 411.425 442.14283243174685 405.8 444.99553347877594 402.5 447.05135218331304 C 399.2 449.10717088785015 394.08117563166377 453.42413338936984 391.1248347370306 456.64460218669024 C 388.1684938423974 459.86507098401063 383.39596168049434 466.55 380.51920771057934 471.5 C 377.64245374066434 476.45 373.4237781090005 483.7625 371.14437297354874 487.75 C 368.86496783809696 491.7375 365.5375 496.0889845881733 363.75 497.41996575149614 C 361.9625 498.750946914819 356.45 500.98811408320296 351.5 502.3914483479049 C 346.55 503.7947826126068 341.0375 505.4057980244336 339.25 505.97148259640875 C 337.4625 506.5371671683839 336.0008698806168 506.6625 336.00193306803726 506.25 C 336.00299625545773 505.8375 338.1404962554578 504.04868729575594 340.75193306803726 502.27486065723537 C 343.36336988061674 500.5010340187148 348.5052622081109 497.57603401871484 352.1783604624686 495.77486065723537 C 357.83161037437475 493.00268239191644 359.45903497555946 491.57901597436364 362.78065902064577 486.5 C 364.9388249732854 483.2 369.0224680495507 478.025 371.85542141234635 475 C 374.68837477514205 471.975 377.0048404239623 469.1625 377.00312285416925 468.75 C 377.0014052843762 468.3375 373.9625 467.7168370972261 370.25 467.370749104947 C 366.5375 467.02466111266784 360.35 467.0361006718503 356.5 467.39617034757475 C 352.65 467.75624002329926 346.8 468.68817941352705 343.5 469.4671467703033 L 337.5 470.88345105535103 L 329.70630646898405 465.69172552767554 C 325.41977502692527 462.836276487454 321.93227502692525 460.3875 321.95630646898405 460.25 C 321.9803379110428 460.1125 323.4625 460.2790043878268 325.25 460.6200097507261 C 327.0375 460.9610151136255 329.9625 462.0860151136255 331.75 463.1200097507261 C 333.5375 464.1540043878268 335 464.775 335 464.5 C 335 464.225 333.89710089745444 462.3125 332.54911310545435 460.25 C 331.20112531345427 458.1875 329.6371260033958 454.475 329.07355908310217 452 C 328.50999216280854 449.525 328.0378912653541 445.3625 328.0244459776478 442.75 C 328.0059468230064 439.1555033587749 327.026944539979 436.17552101246065 324 430.5 C 321.8 426.375 319.5658419508314 420.6375 319.03520433518077 417.75 C 318.5045667195302 414.8625 318.4087295257904 410.925 318.8222327935368 409 C 319.3793340479009 406.4065019594747 320.14721778492975 405.4352498600375 321.78702845835596 405.25 C 323.0041628062602 405.1125 325.125 405.675 326.5 406.5 L 329 408 L 325.75 409.7535978487176 L 322.5 411.5071956974353 L 322.7516245991184 416.0035978487176 C 322.8971456855468 418.6039848075682 324.0221249280752 422.1866953876811 325.4195141320947 424.5 C 326.7484598457166 426.7 329.6559973151747 430.3 331.8807085086684 432.5 L 335.9256379513842 436.5 L 335.3950636184509 443 C 334.9633090934468 448.2893708540541 335.21852957824916 450.0587519135135 336.76537025345203 452.5 C 337.81085478581593 454.15 341.10384469657447 456.83211160890426 344.0831256106932 458.4602480197873 C 348.8105772709027 461.04373591520556 350.54296811618167 461.42555539977303 357.6947215242025 461.4602480197873 C 362.2018183625139 461.4821116089043 366.36041368326397 461.05 366.9360444592027 460.5 C 367.66404653342505 459.80441324967495 367.52934606573507 454.93380125487533 366.4935523277537 444.5 C 365.6745508795181 436.25 365.00094593828663 427.475 364.99665245835047 425 C 364.9923589784143 422.525 364.4752061603101 418.7 363.8474239736744 416.5 C 363.21964178703865 414.3 361.7536795277202 411.6 360.5897300640777 410.5 C 359.4257806004352 409.4 356.95494142011427 407.375 355.0989763300312 406 L 351.72449434806197 403.5 L 352.862247174031 399.75 C 353.8693238503284 396.43070476300625 353.7272995078504 395.5118679352596 351.6256894898876 391.75 C 350.3198187093258 389.4125 347.0197639347296 385.025 344.2922344352295 382 C 341.56470493572937 378.975 337.12064466527994 375.0153337681017 334.4165449453419 373.2007417068927 C 331.7124452254039 371.38614964568364 326.35 368.92628242233206 322.5 367.73437009944473 C 316.8608956016533 365.98857321049996 313.16703611145147 365.5845167494762 303.5 365.6560363729413 C 293.5004508089944 365.7300160275858 289.9996618932542 366.19671475126086 282.5 368.45559768128237 C 277.55 369.94652762755953 270.35 373.02912760484594 266.5 375.3058198530299 C 262.65 377.5825121012139 256.6335466231367 382.157576735812 253.13010360697035 385.47263015213673 C 249.62666059080405 388.78768356846155 245.7059308192021 393.3 244.41737078118828 395.5 C 243.12881074317445 397.7 241.00293053940416 402.65 239.69319255058764 406.5 C 238.38345456177112 410.35 236.7080997928213 414.625 235.97018195292137 416 C 235.23226411302144 417.375 232.79959769365507 420.4657502177316 230.56425657655166 422.86833381718134 C 228.32891545944824 425.2709174166311 224.475 428.26121879236297 222 429.5134479854744 C 219.525 430.7656771785858 214.8 432.56734482383297 211.5 433.51715386380147 C 207.68321825252224 434.61570350238975 203.86258631060832 435.03901677162094 201 434.6805188239712 C 198.525 434.37056051209606 195.2625 433.19064264911725 193.75 432.05847912846275 C 191.553768501539 430.41451669178844 191 430.302055546294 191 431.5 C 191 432.325 192.575 434.35 194.5 436 C 196.66587030450088 437.8564602610008 199.6200146302489 439.2338705627998 202.25 439.6135437750623 C 204.5875 439.95099285134654 208.75 439.8977139018075 211.5 439.49514610942 C 214.25 439.09257831703246 218.975 437.90965378840275 222 436.86642493468725 C 225.025 435.82319608097174 227.8375 434.9764750305108 228.25 434.98482260032955 C 228.6625 434.9931701701483 227.08142317491019 438.4875 224.73649594424484 442.75 C 222.3915687135795 447.0125 219.53490046433706 451.85 218.38834427926164 453.5 C 217.24178809418623 455.15 214.54786491927607 457.2415585747662 212.4018483350168 458.1479079439249 C 210.25583175075755 459.0542573130836 203.325 460.3044419421973 197 460.9260960086219 C 190.675 461.54775007504657 183.25 462.709232231245 180.5 463.5071674668406 C 177.75 464.3051027024362 173.67010648048566 466.2049180733226 171.4335699566348 467.7289794021436 C 169.19703343278397 469.2530407309646 165.75209607516265 472.3 163.77815360636524 474.5 C 161.80421113756782 476.7 159.07833312470532 480.75 157.7206469111152 483.5 C 156.3629606975251 486.25 154.9703980551464 489.7375 154.6260632613848 491.25 C 154.28172846762317 492.7625 154.3375 494.01415510668596 154.75 494.0314557926355 C 155.1625 494.04875647858495 156.4 492.1829833328543 157.5 489.88529324656724 C 158.6 487.58760316028025 162.01148891330467 483.4109480535943 165.08108647401042 480.6038374539318 C 168.57857646459885 477.40542429695205 172.87189097798873 474.66772566805406 176.58108647401042 473.2706839814489 C 179.8364889133047 472.04456017124573 189.025 469.7226760607945 197 468.1109415137796 C 204.975 466.49920696676463 212.7375 464.6898991751126 214.25 464.0902575323307 C 215.7625 463.49061588954885 216.99011301307308 463.3375 216.97802891794018 463.75 C 216.96594482280727 464.1625 215.76274987420243 466.525 214.30426236548496 469 C 212.8457748567675 471.475 209.9498106569342 475.75 207.86878636585544 478.5 C 205.78776207477668 481.25 202.60345702338154 484.6692023869278 200.79255291831066 486.09822752650626 C 198.9816488132398 487.52725266608473 195.5875 489.6647526660847 193.25 490.84822752650626 C 190.9125 492.0317023869278 189.1125 493.2248452597446 189.25 493.4996561327658 C 189.3875 493.77446700578696 191.975 493.4930992236268 195 492.8743943946322 C 198.025 492.25568956563757 203.0875 490.4558443058929 206.25 488.8747382618664 C 209.4125 487.2936322178399 212.225 485.55 212.5 485 C 212.775 484.45 213.45 484 214 484 C 214.55 484 213.80019168464335 486.3625 212.33375929920746 489.25 C 210.86732691377156 492.1375 207.60482691377155 496.55314155102593 205.08375929920746 499.0625367800576 C 202.54349410945755 501.59104070070146 197.15641129463722 505.2622866627196 193 507.2975043976277 C 188.875 509.31734135825957 182.8 511.6539615014826 179.5 512.48999360479 C 176.2 513.3260257080974 171.925 514.0002902801922 170 513.988359320556 C 167.58283976000646 513.9733780004223 166.8093827885733 514.2923327599058 167.5 515.0192982456149 C 168.05 515.5982456140333 172.1 516.0909233046656 176.5 516.114137558131 C 180.9 516.1373518115964 186.75 515.6108584971264 189.5 514.9441524148644 C 192.25 514.2774463326024 197.64752129162198 512.1047686419688 201.49449175915996 510.11597976901214 C 205.53529062141246 508.0269863954168 211.05298076563327 503.96626946007393 214.56065658752047 500.5 C 217.90007677558077 497.2 222.85255548395878 490.73919985519956 225.5661648283605 486.14266634488786 C 228.27977417276225 481.54613283457616 231.88138256394268 476.1461328345762 233.56973903098375 474.14266634488786 C 235.25809549802483 472.13919985519954 238.29559549802482 469.4875 240.31973903098375 468.25 C 242.34388256394269 467.0125 244.22603121949066 466.1125 244.5022915988681 466.25 C 244.77855197824556 466.3875 243.54105197824558 469.3878238810717 241.7522915988681 472.9173864023816 C 239.19202448567282 477.96927761791795 238.42800400777207 480.841815418598 238.16164208706087 486.4173864023816 L 237.82328417412174 493.5 L 240.7496897325765 489 C 242.35921278972663 486.525 245.66147385054924 482.67108454055176 248.08804764551564 480.43574342344834 C 250.51462144048205 478.2004023063449 253.5125 475.8379023063449 254.75 475.18574342344834 L 257 474 L 256.41901583620023 478.25 C 256.09947454611034 480.5875 254.6148731609659 485.2 253.11990164699034 488.5 C 251.62493013301477 491.8 249.07387300672468 496.2509057020677 247.4508858107901 498.39090156015044 C 245.82789861485554 500.53089741823317 242.7 503.514921191946 240.5 505.02206550173446 C 238.3 506.5292098115229 234.475 508.3416643277929 232 509.04974220455665 C 229.525 509.7578200813204 227.05 510.7187963076064 226.5 511.1852449296366 C 225.92799992098787 511.67035156355723 227.53299962469242 512.0262000013125 230.25 512.0166666666639 C 233.13192556026866 512.0065546471559 238.24455034269127 510.76035928768783 243.25 508.8479342909218 C 250.2884452392178 506.15876557773834 252.45455829637385 504.72543227679444 258 499.0877483583 C 261.575 495.4532822353511 265.91110346219796 489.78421180443627 267.635785471551 486.48981406737823 L 270.77157094310206 480.5 L 271.8345086344856 484 C 272.4191243647465 485.925 273.5955209025485 488.0625 274.4487231629345 488.75 C 275.7287789888999 489.78145340936277 276.7430584081666 489.51919750059807 280.25 487.25 C 282.5875 485.7375 285.4 484.0084915911993 286.5 483.407759091554 C 287.6 482.8070265919087 289.0625 481.1195265919087 289.75 479.657759091554 C 290.4375 478.1959915911993 291.1852628477078 477.1125 291.4116952171284 477.25 C 291.638127586549 477.3875 291.52562758654904 478.81455912007215 291.1616952171284 480.4212424890493 C 290.7433858642263 482.2679885794432 289.2126240257728 484.1385287973752 287 485.506696073572 C 285.075 486.6970121760824 281.7558954755809 489.2074530560102 279.62421216795764 491.0854535845227 C 277.49252886033435 492.96345411303525 274.2474606102979 496.525 272.41294939009885 499 C 270.5784381698998 501.475 269.0600426943189 504.0625 269.0387372221412 504.75 C 269.0174317499635 505.4375 269.9 506 271 506 C 272.1 506 274.0125 506.50399731844993 275.25 507.1199940409998 C 276.4875 507.7359907635497 278.97065595892445 509.6484907635497 280.7681243531655 511.3699940409998 C 282.56559274740647 513.0914973184499 284.02809274740645 514.8375 284.0181243531655 515.25 C 284.0081559589245 515.6625 281.1875 514.8177739660925 277.75 513.3728310357611 C 272.39298967719844 511.1210276339736 270.49985156153775 510.81732341243963 264.5 511.24721700790076 C 260.65 511.52307222290904 254.8 512.7857659827503 251.5 514.0532031408814 C 247.6311009858379 515.5391384050045 243.87639129364337 517.9812430438401 240.92881716874172 520.9288171687417 C 237.87499345843997 523.9826408790434 235.62785369969336 527.4916409082315 234.15910356386686 531.5 C 232.94991163837776 534.8 231.31611621194241 539.3 230.52844706067722 541.5 C 229.74077790941203 543.7 225.56079978291532 549.55 221.23960677957342 554.5 C 216.91841377623152 559.45 210.48424147673308 567.5182438319459 206.94144611402135 572.4294307376576 C 203.39865075130962 577.3406176433693 198.7 582.7721412304219 196.5 584.49948315333 C 194.3 586.2268250762381 189.125 589.6995748230959 185 592.2167048130138 C 180.875 594.7338348029319 175.07752657664048 598.9773112158794 172.11672572586775 601.6466523973415 C 169.15592487509502 604.3159935788037 165.60965098967412 608.75 164.23611709159908 611.5 C 162.86258319352405 614.25 160.65109730438812 621.675 159.32170400463033 628 C 157.99231070487255 634.325 156.02608459029346 640.7375 154.952312638899 642.25 C 153.87854068750454 643.7625 153 645.45 153 646 C 153 646.55 154.4625 648.1178058785262 156.25 649.4840130633914 C 158.0375 650.8502202482567 161.75 652.6561198224871 164.5 653.4971232283478 C 167.25 654.3381266342085 171.525 655.0225824499313 174 655.0181361521763 C 176.475 655.0136898544213 181.2 654.3028989184196 184.5 653.4386007388393 C 187.8 652.574302559259 194.1 650.0879702857924 198.5 647.9134179089135 C 202.9 645.7388655320345 207.0625 643.9687568938059 207.75 643.9798431572941 C 208.4375 643.9909294207823 214.0625 642.2635621873892 220.25 640.1412493053092 C 226.4375 638.0189364232293 233.75 635.1466598842662 236.5 633.7584125520577 C 239.25 632.3701652198494 243.8625 629.3816030324602 246.75 627.1171632467485 C 249.6375 624.8527234610368 253.356441297766 620.8625 255.01431399503554 618.25 C 256.6721866923051 615.6375 258.0221866923051 613.1625 258.01431399503554 612.75 C 258.006441297766 612.3375 255.6375 613.3330841378299 252.75 614.9624091951777 C 249.8625 616.5917342525254 243.45 619.549298888561 238.5 621.5347750530345 C 233.55 623.5202512175081 227.1375 626.0121670796782 224.25 627.0723658578569 C 221.3625 628.1325646360356 218.97996359201852 628.6625 218.95547464893008 628.25 C 218.93098570584164 627.8375 219.62602211382307 626.825 220.49999999999994 626 C 221.37397788617682 625.175 222.06901429415828 623.2625 222.04452535106986 621.75 C 222.01526766137317 619.942969965814 221.05703003418603 618.3023443902483 219.25 616.9654145981616 C 217.12031375474518 615.389767854492 214.9210195333759 614.9202300433152 209.5 614.8838406029716 L 202.5 614.8368520096201 L 206 613.1958202060903 C 208.1507650031319 612.1873991283592 212.1412461237927 611.544228055395 216.3515577010179 611.5273942012802 L 223.2031154020358 611.5 L 226.3515577010179 615.2325626602135 C 228.46699740249016 617.7404730774383 230.64834853173372 619.1704322822842 233 619.5908712038787 C 235.8000037225798 620.0914685761798 237.94999228894187 619.4949592163734 243.75 616.6083085436652 C 247.89097560665522 614.547354383582 253.29313813622295 610.7486375082676 256.34741751245326 607.75 C 259.2884971443026 604.8625 262.8884971443026 600.1375 264.34741751245326 597.25 C 265.80633788060396 594.3625 267.7070338656025 588.7375 268.57118636800556 584.75 C 269.43533887040866 580.7625 271.01033887040865 574.6875 272.07118636800556 571.25 C 273.1320338656025 567.8125 274.1125 564.999947843343 274.25 564.9998840963176 C 274.3875 564.9998203492922 274.5 574.3373203492923 274.5 585.7498840963176 C 274.5 603.2551888859806 274.7607685857521 606.9691266972793 276.16757884766133 609.5 C 277.08474721387506 611.15 279.5597472138751 614.1405802346849 281.66757884766133 616.1457338548554 C 283.7754104814476 618.1508874750259 289.775 622.7716863865031 295 626.4141758803605 C 301.17261366871855 630.7172726148959 305.46319078010777 633.0304247095801 307.25 633.0184420255051 C 308.95249461791883 633.007024771263 310.96511671341705 631.9524946179188 312.5337062771208 630.25 L 315.0674125542416 627.5 L 315.08180558343497 619 L 315.09619861262837 610.5 L 318.1702066492762 616.5 C 319.8609110694325 619.8 322.0942835256275 625.875 323.1332565519316 630 C 324.1722295782357 634.125 325.01770231600767 639.525 325.0120848580915 642 L 325.0018712982439 646.5 L 333.75093564912197 657.1860853339256 C 338.56292104210485 663.0634322675846 345.7625 671.5009322675846 349.75 675.9360853339256 C 354.52255947545757 681.2444318648021 357.3156221993749 685.2814347540736 357.92363910366356 687.75 C 358.4316406106785 689.8125 358.51499271126715 692.625 358.10886599386055 694 C 357.70273927645394 695.375 356.42586496019754 697.85 355.2713675132908 699.5 C 354.11687006638397 701.15 350.66265040889465 707.675 347.5953238299811 714 C 344.5279972510675 720.325 341.99939186360604 726.175 341.9762007467333 727 C 341.9512002172246 727.8893679833491 344.69530591872626 729.8065840174164 348.717017539846 731.7095860889738 C 352.4476578929307 733.4748584379092 358.425 735.5799713094058 362 736.3876146922994 C 365.575 737.1952580751929 371.425 738.1575360224256 375 738.5260101305943 C 378.7286505132387 738.9103209480875 384.91089167601393 738.6820600182068 389.5 737.9906406106863 C 393.9 737.3277132665683 401.55 735.3197992871113 406.5 733.5286095452263 C 411.45 731.7374198033415 418.65 728.6725012306727 422.5 726.71767938374 C 426.35 724.7628575368072 430.3151294271288 722.5641798289934 431.3113987269529 721.8317289219312 C 432.88076177703357 720.6779431034338 432.9891129352107 719.8987184987386 432.12230046062405 716 C 431.5720271143191 713.525 430.8582981937424 709.925 430.5362361926759 708 L 429.95066891800957 704.5 L 434.3907582079703 709.5 L 438.83084749793096 714.5 L 445.1654237489655 711.2225357838499 C 448.6494406870345 709.4199304649675 454.3125 705.7074304649675 457.75 702.9725357838499 C 461.5632978923514 699.9386541479785 465.165958425629 695.9531702295751 466.99061593836484 692.75 C 469.2584220628725 688.7688862765926 469.98349993521117 686.2311137234074 469.99061593836484 682.25 C 469.9957771722642 679.3625 469.55 675.875 469 674.5 C 468.27645548176383 672.6911387044096 468.5376683046515 668.7516480892749 469.94486396587655 660.25 C 471.0145391471087 653.7875 472.59075431018925 643.1 473.44756432827785 636.5 C 474.3043743463665 629.9 475.00878517362054 619.1 475.01292172217575 612.5 C 475.017058270731 605.9 474.3408431076504 596.5625 473.51022135977445 591.75 C 472.6795996118985 586.9375 471.0191323992463 580.6375 469.82029422054734 577.75 C 467.8904811820708 573.1018871457294 467.6286865148604 570.5510320995428 467.5367731109729 555.5 L 467.4329577808511 538.5 L 464.46647889042555 529.1777158692978 C 462.21938820121494 522.1161392843819 461.1362413684098 519.971871500017 460 520.3355843094594 C 459.175 520.5996682234343 454.675 522.4239619194459 450 524.3895703005963 C 443.49972342221895 527.122618027031 440.08843052549247 527.9695276192444 435.5 527.989433888645 C 431.77534082981674 528.0055928058291 428.6467471888187 527.4436966823853 427.25 526.5077320282101 C 426.0125 525.6784794126945 425 524.55 425 524 C 425 523.45 427.475 523 430.5 523 C 433.525 523 438.8125 522.060424192328 442.25 520.9120537607289 C 445.6875 519.7636833291298 451.2 517.2071153326447 454.5 515.2307915463176 C 457.8 513.2544677599905 463.65 509.289324424403 467.5 506.4193619116787 C 471.35 503.54939939895445 478.775 496.7678218997716 484 491.3491896912724 C 489.225 485.93055748277317 495.3838171876567 479.0227766260327 497.6862604170149 475.9985655651824 C 499.98870364637315 472.97435450433204 504.13560714272705 466.675 506.9016015200237 462 C 509.6675958973203 457.325 511.7212787096636 453.3875 511.46534110300877 453.25 C 511.20940349635396 453.1125 508.1875 454.88430366194103 504.75 457.1873414709801 C 501.3125 459.4903792800191 495.9125 462.4153792800191 492.75 463.6873414709801 C 489.5875 464.959303661941 486.325 466 485.5 466 C 484.675 466 483.325 465.325 482.5 464.5 C 481.675 463.675 480.9889433729478 461.3125 480.9754297176618 459.25 C 480.96191606237585 457.1875 481.7176157101206 453.7 482.65476226820573 451.5 L 484.3586651010878 447.5 L 484.9746844230366 451 C 485.31349505010843 452.925 485.90779540236366 455.0625 486.2953518724927 455.75 C 486.6829083426217 456.4375 488.6875 457.0115693452093 490.75 457.0257096560207 C 493.0625387162741 457.0415642093353 497.183261062955 455.7196960943913 501.5 453.57726517465596 C 505.35 451.666480399094 511.5375 447.6049110538847 515.25 444.55155551863527 C 518.9625 441.49819998338586 524.7691333284911 435.5125 528.1536296188692 431.25 C 531.5381259092472 426.9875 536.6509579640708 419.9 539.5154786295882 415.5 C 542.3799992951056 411.1 545.7023822434421 405.925 546.8985518481138 404 L 549.0734056747896 400.5 L 548.7867028373948 407.75225277663003 C 548.6290162768277 411.7409918037765 548.725 415.0153016437027 549 415.0284968653549 C 549.275 415.04169208700705 552.65 412.8602530130617 556.5 410.1808544788097 C 560.35 407.5014559445577 566.8223696881922 401.7521461046315 570.8830437515383 397.4046103900848 C 574.9437178148842 393.05707467553816 581.3839271953166 384.775 585.194620152499 379 C 589.0053131096814 373.225 598.0005501628249 356.575 605.184035826151 342 C 612.3675214894771 327.425 620.2821137848201 312.35 622.7720187046909 308.5 C 625.2619236245616 304.65 629.8193168832261 298.3977229901564 632.8995592795006 294.60605108923653 C 635.9798016757753 290.8143791883166 641.2 285.32920774184447 644.5 282.4167812081874 L 650.5 277.1214602379018 L 644.5599795033618 271.8107301189509 C 641.2929682302107 268.8898285535279 636.1179682302107 263.07668669492426 633.0599795033618 258.8926370998317 C 630.0019907765128 254.70858750473914 627.05 250.54194241140334 626.5 249.63342578130766 Z " class="odd" fill="#ff6600"></path><path d="M 652 287 C 651.45 287 649.0875 288.6169264666404 646.75 290.5931699258676 C 644.4125 292.5694133850948 642.1150273920996 294.48191338509474 641.6445053157768 294.8431699258676 C 641.1739832394541 295.2044264666404 642.1217875218964 297.525 643.7507370545375 300 C 645.3796865871786 302.475 648.8728973793342 308.325 651.5134277037721 313 C 654.1539580282099 317.675 658.4477878181148 326.225 661.0552716813386 332 C 663.6627555445623 337.775 668.3537173193832 350.15 671.4796311809408 359.5 C 674.6055450424984 368.85 678.9125298217085 383.925 681.0507084680746 393 C 683.1888871144406 402.075 686.0664967689393 416.025 687.4453965891828 424 C 688.8242964094263 431.975 690.6607450414265 443.675 691.5263935491831 450 C 692.3920420569398 456.325 693.3487333163966 471.625 693.652374125754 484 C 694.1081279541276 502.5744256118266 693.92018644264 507.8085247960578 692.5751600443675 514 C 691.6790514902475 518.125 689.9455506172158 523.2825842798144 688.7229358820747 525.4612983995875 C 687.5003211469336 527.6400125193605 684.925 530.4921700710012 683 531.7994262921222 C 680.1636803627133 533.7255543393588 678.6941024167052 534.0647332327725 675.25 533.5881278925347 C 672.9125 533.2646575516407 669.7625 532.3773756236312 668.25 531.616390274736 C 666.7375 530.8554049258408 663.2671808862302 528.4929049258409 660.5381797471783 526.366390274736 L 655.5763594943567 522.5 L 656.2069855014623 525 C 656.5538298053705 526.375 658.465740835467 533.8 660.4556766794549 541.5 C 662.4456125234427 549.2 665.422652060378 563.375 667.0713200948668 573 C 668.7199881293556 582.625 670.7498451486957 596.35 671.5821134711782 603.5 C 672.4143817936607 610.65 673.3574364468152 629.55 673.6777904781881 645.5 C 674.0337761849808 663.2240536009836 673.8073040791292 681.8876890200453 673.0953390512932 693.5 C 672.454636735128 703.95 670.8127171997602 721.275 669.4466289726979 732 C 668.0805407456356 742.725 666.0943706624815 756.45 665.0329176767998 762.5 C 663.9714646911182 768.55 663.3000384187714 773.725 663.5408592938068 774 C 663.7816801688422 774.275 664.1738677605073 773.825 664.4123872752848 773 C 664.6509067900622 772.175 666.2144399885522 766.55 667.8869054941513 760.5 C 669.5593709997504 754.45 673.628480117547 738.7 676.929370200366 725.5 C 680.2302602831849 712.3 684.5351176635529 693.85 686.4957199345171 684.5 C 688.4563222054812 675.15 691.5922098639061 659.175 693.464359175461 649 C 695.336508487016 638.825 698.4829595981346 619.7 700.4564727557247 606.5 C 702.4299859133147 593.3 705.3651898434033 569.45 706.9791481559218 553.5 C 708.5931064684403 537.55 710.4852524135018 515.95 711.1839169227254 505.5 C 711.941302204218 494.17170711105155 712.4534035408668 466.3112970761801 712.4522037923207 436.5 C 712.4509282162402 404.80454381142357 711.9768134066991 380.4595005422302 711.1571296991734 370 C 710.4459456788885 360.925 708.7696525791853 344.3875 707.432033922055 333.25 C 706.0944152649247 322.1125 704.775 312.55 704.5 312 L 704 311 L 701.5 312 C 700.125 312.55 697.425 313 695.5 313 C 693.575 313 690.7625 312.5233526591266 689.25 311.94078368694807 C 687.7375 311.3582147147695 683.575 309.0167631267229 680 306.73755793573343 C 676.425 304.458352744744 668.8875 299.08500008561737 663.25 294.79677424878537 C 657.6125 290.5085484119534 652.55 287 652 287 Z " class="odd" fill="#ff6600"></path><path d="M 289.5 338.01358819088625 C 287.85 338.0302728864388 284.7 338.8570899977328 282.5 339.8509595493174 C 280.3 340.84482910090196 277.2625 343.0849462006811 275.75 344.82899754882646 C 274.09077050229064 346.7422414776613 272.58868416440527 350.0823800498276 271.9630095922926 353.25 C 271.1774410657743 357.2271194926858 271.2436700359817 359.46981371985845 272.23617120612136 362.5 C 273.2137432660958 365.4846065003303 274.0481404394614 366.4620030637365 275.52316161382873 366.35031640925087 C 276.6104227262229 366.26799043433886 280.65 365.4883040650374 284.5 364.6176800330255 C 288.35 363.7470560010136 294.3125 363.0269136168507 297.75 363.01736362377466 C 303.2204313052864 363.00216578200343 304.14112465801827 362.7193552699031 305.1314321862785 360.75 C 305.75371988873167 359.5125 306.0570035726559 356.7 305.80539592833236 354.5 C 305.5537882840088 352.3 304.4821438001835 348.7 303.42396374205384 346.5 C 302.0499596029632 343.64338870518657 300.2136877066651 341.8544502235022 297 340.2416261903953 C 294.525 338.99952059511276 291.15 337.99690349533364 289.5 338.01358819088625 Z " class="odd" fill="#ff6600"></path><path d="M 312.2392385184513 476 C 312.7109375153238 478.475 312.79498743984993 487.025 312.42601612850945 495 C 312.057044817169 502.975 311.7188820418642 514.45 311.6745432944989 520.5 L 311.59392739019825 531.5 L 314.56131004186676 538.5 C 316.19337050028446 542.35 319.09723683748985 547.4784398526915 321.01434634676764 549.8965330059812 C 322.93145585604543 552.3146261592709 325.625 555.0845484874179 327 556.0519159574189 C 328.375 557.0192834274201 330.0694561069907 557.9658435747285 330.76545801553493 558.1553829514378 C 331.56346036996064 558.3726996958512 333.04642041885677 555.5448286367742 334.78000706632804 550.5 C 336.29200713572004 546.1 339.2100510287293 539.9125 341.2645490507931 536.75 C 343.3190470728569 533.5875 345.1982394430927 531.1125 345.44053209576157 531.25 C 345.68282474843045 531.3875 345.41161827736425 534.875 344.8378510489478 539 C 344.26408382053137 543.125 344.00593950928686 552.8 344.26419702396004 560.5 C 344.65601846147695 572.1822353560519 345.18720682768134 575.9072142481114 347.4727355381182 583 C 348.97917420623196 587.675 352.63349665221926 596.225 355.59345208475656 602 C 358.5534075172938 607.775 363.2005028814979 615.425 365.92033067187685 619 C 368.6401584622557 622.575 375.4403256921427 630.45 381.03181340495905 636.5 C 387.603028230902 643.6100665402215 392.2213205749364 649.6217818871519 394.0914753014046 653.5 C 395.68280163163337 656.8 397.51889660478747 662.875 398.17168635285816 667 C 399.0851002671287 672.7718927227365 399.0868518879759 676.2857108531723 398.1792884019479 682.25 C 397.53067978087654 686.5125 395.9875 692.2679234743509 394.75 695.0398299430021 C 393.5125 697.8117364116533 392.275 700.0627696313416 392 700.0421259867538 C 391.725 700.0214823421661 391.6321849623323 695.8410588678151 391.79374436073846 690.7522960437517 C 392.0091463677946 683.9676104324556 391.5472287411514 679.3663800459589 390.06178595542525 673.5 C 388.94764943409683 669.1 386.23347898503073 661.9 384.0302960686116 657.5 C 381.5812784499169 652.6090409053413 377.114728307312 646.1966440380749 372.5372336648808 641 C 368.4192322592479 636.325 362.17034205195074 628.9 358.65081098199823 624.5 C 355.13127991204567 620.1 350.0085157118454 612.9 347.26689053710874 608.5 C 344.52526536237207 604.1 340.2500680523277 596.675 337.7664520703436 592 C 334.91183299219034 586.6266474820696 331.64133811674066 582.1100674666073 328.8753933242771 579.7213755782866 C 326.3376927945918 577.5297972478863 321.13994953889926 574.6705561040367 316.5 572.9137608071369 C 312.1 571.2478161149469 306.5875 568.7856971047179 304.25 567.4423852288503 C 301.9125 566.0990733529826 298.9875 563.56412705565 297.75 561.8091712347779 C 296.5125 560.0542154139057 295.95 558.8396842450052 296.5 559.1102130816656 C 297.05 559.3807419183261 299.75 560.6700283669172 302.5 561.975294078535 C 305.25 563.2805597901527 309.8625 564.4950909590532 312.75 564.6742522316472 C 315.8004985122352 564.8635271045471 318 564.5810473356638 318 564 C 318 563.45 316.1902770501413 560.4125 313.97839344475847 557.25 C 311.7665098393756 554.0875 308.8019191821004 548.125 307.3904142063692 544 C 305.45112990351635 538.3326110167455 304.6934578451623 533.6899964409902 304.289625012301 525 L 303.7552085013805 513.5 L 306.99214327058775 500.5 C 308.77245739365173 493.35 310.4883963760449 483.9 310.8053410092391 479.5 L 311.3816039786832 471.5 L 312.2392385184513 476 Z " class="even" fill="#ffffff"></path><path d="M 386.25 557.9731136130638 C 386.3875 557.958326100249 392.8 561.1145131575281 400.5 564.9868626292396 C 408.2 568.8592121009511 417.9875 573.1463109750724 422.25 574.5137490161758 C 426.5125 575.8811870572791 431.125 577 432.5 577 C 433.875 577 435.0109680854304 577.3375 435.0243735231787 577.75 C 435.0377789609271 578.1625 433.3502789609271 579.1078851352038 431.2743735231787 579.8508558560084 C 428.9069311724215 580.6981682228536 424.7043085485947 581.0603934761784 420 580.8225973543667 C 414.5845030772709 580.5488516694047 411.1291708722499 579.7565026287773 407.5677844661251 577.9717414983584 C 404.8550659224939 576.6122836742613 398.8925659224939 572.0125 394.3177844661251 567.75 C 389.7430030097563 563.4875 386 559.55 386 559 C 386 558.45 386.1125 557.9879011258787 386.25 557.9731136130638 Z " class="even" fill="#ffffff"></path><path d="M 146 674.9622047711173 C 142.44732711029025 674.9217394532752 141.717743707047 675.183469066755 142.53432771116536 676.2054746489301 C 143.1809870233434 677.0148089286592 143.3683881703892 681.5258351336956 143.03432771116536 688.2412232986787 C 142.63305111264788 696.3078113852484 142.81125821725982 699.1091353405868 143.75 699.4912232986787 C 144.4375 699.7710504844055 146.0125 700.0008219646634 147.25 700.0018265881408 L 149.5 700.0036531762817 L 149.5 694.2518265881408 L 149.5 688.5 L 153.75 688.25 L 158 688 L 158 693.5 C 158 697.0087719298245 157.5474481658692 699.1524385125493 156.75 699.421052631579 C 156.0625 699.6526315789474 157.525 699.8776315789473 160 699.921052631579 L 164.5 700 L 164.5 690.25 C 164.5 684.8875 164.8375 679.2625 165.25 677.75 L 166 675 L 161.75 675.0045677938592 L 157.5 675.0091355877183 L 157.91074645292167 681.2545677938592 L 158.32149290584334 687.5 L 155.91074645292167 686.7636546832924 C 154.58483590381476 686.3586647591032 152.7125 686.0211647591033 151.75 686.0136546832924 C 150.26672955329832 686.0020812043285 150.03810422189977 685.1627329024822 150.25 680.506730122187 L 150.5 675.0134602443742 L 146 674.9622047711173 Z " class="odd" fill="#ff6600"></path><path d="M 179 682.0074428951091 C 177.625 682.0473906965199 175.2625 682.7370583275156 173.75 683.5400376306552 C 172.2375 684.3430169337948 171.00448142178817 685.1125 171.0099587150848 685.25 C 171.0154360083814 685.3875 172.6879223354503 685.5 174.7265949974601 685.5 C 177.2228399911561 685.5 178.53019524024995 685.9898318851399 178.73007646351573 687 C 178.9550715941352 688.137089833838 178.23732328334913 688.4211124841876 175.7634401811404 688.1739378370958 C 173.38055428082683 687.9358550509917 171.88595783404003 688.4755029268226 170.22428580390675 690.1739378370958 C 168.97264299605547 691.4532720266931 167.9454753650597 693.625 167.94169106836063 695 C 167.93790677166157 696.375 168.73697815990352 698.2761248068498 169.71740526445387 699.2247217929995 C 170.69783236900426 700.1733187791492 172.4 700.9642981918438 173.5 700.9824538212096 C 174.6 701.0006094505753 176.5125 700.3369846437256 177.75 699.5077320282101 C 179.74656354301774 698.1698285614704 180 698.1689576379881 180 699.5 C 180 700.4696134600804 180.9723753231859 701.0001218040355 182.75 701.0003444771683 L 185.5 701.0006889543365 L 185.5 693.606444300755 C 185.5 687.5917645002178 185.1268544205185 685.8131774368727 183.5 684.0735050880406 C 182.4 682.8972230805175 180.375 681.9674950936983 179 682.0074428951091 Z " class="odd" fill="#ff6600"></path><path d="M 194.5 683.3016135977916 C 193.4 683.1925010765771 191.6 683.4983727084025 190.5 683.9813283351814 C 189.16412836612866 684.5678435372108 188.9980962745965 684.8805817832362 190 684.9231289327022 C 191.2891937342473 684.9778762273884 191.3855142525591 686.498532181115 190.68537231069405 695.7434141953127 C 190.23732708157578 701.6595363878906 189.78732708157577 706.95 189.68537231069405 707.5 C 189.58341753981233 708.05 191.07340856977544 708.5 192.99646348838985 708.5 L 196.4929269767797 708.5 L 196.24646348838985 704.75 L 196 701 L 199.25 701.633513165915 C 201.94636918261278 702.159108666639 203.09621780334007 701.7472122858201 206 699.2155422083391 L 209.5 696.1640580848482 L 209.5 691.0014176861794 C 209.5 686.9842345808752 209.0562513733631 685.5200832629446 207.5 684.4024054074162 C 206.4 683.6124008733644 204.7125 682.9736759836745 203.75 682.983016763661 C 202.7875 682.9923575436475 200.875 684.125 199.5 685.5 L 197 688 L 196.75 685.75 C 196.5926202443727 684.3335821993545 195.75903804501823 683.4265016117889 194.5 683.3016135977916 Z " class="odd" fill="#ff6600"></path><path d="M 217.25 684.0702852626104 C 215.7375 684.108942157046 213.6 684.5273137888714 212.5 685 C 211.4 685.4726862111286 211.0625 685.891057842954 211.75 685.9297147373896 C 212.68879737265414 685.9825016332895 212.93775947453082 688.860874037926 212.75 697.4912029435832 C 212.56618266441384 705.9403321746602 212.83091332206922 709.1171000665247 213.75 709.4912029435832 C 214.4375 709.7710413246124 216.125 710 217.5 710 C 218.875 710 220 709.55 220 709 C 220 708.45 219.48038112181993 707.8875 218.84529138182205 707.75 C 218.1125737387267 707.5913630868514 217.9298475650239 706.4950060446347 218.34529138182205 704.75 C 218.9315558838646 702.2874886845025 219.33975935441197 702.0573471421708 222.25 702.5485594719753 C 224.59346192132028 702.9441066209457 226.26707068195975 702.5257044307859 228.25 701.0485594719753 C 229.90983596244865 699.8120966782301 231.39642328638232 697.4143068544707 232 695 C 232.68831055485958 692.2467577805617 232.66451204130902 690.1428540258638 231.9236467133501 688.25 C 231.33165240569267 686.7375 230.31915240569268 685.1693907485327 229.6736467133501 684.765312774517 C 229.02814102100754 684.3612348005014 227.7125 684.0237348005014 226.75 684.015312774517 C 225.7875 684.0068907485327 223.59809653176686 685.2375 221.8846589594819 686.75 L 218.7693179189638 689.5 L 219.3846589594819 686.75 L 220 684 L 217.25 684.0702852626104 Z " class="odd" fill="#ff6600"></path><path d="M 239 684.9707874234472 C 234.58737919271744 684.9227796128956 233.720737990022 685.1668838308054 234.61650007030846 686.2054746489301 C 235.23057510897814 686.9174635920185 236.91783305900447 691.1 238.3659621814781 695.5 C 239.81409130395176 699.9 241.0121308430826 703.95 241.02827226843556 704.5 C 241.0444136937885 705.05 240.03215574376216 706.0329948194516 238.77881015726592 706.6844329321148 L 236.5 707.8688658642294 L 235.26666666666665 706.6844329321148 C 234.58833333333334 706.0329948194516 233.68833333333333 705.8600727656349 233.26666666666665 706.3001617014108 C 232.845 706.7402506371868 233.00968849770797 707.8652506371868 233.63264110601773 708.8001617014108 C 234.2555937143275 709.7350727656349 235.60559371432748 710.3506632413679 236.63264110601773 710.168140536373 C 237.65968849770798 709.9856178313781 239.97670109266235 708.4106178313782 241.78155798369409 706.668140536373 C 243.58641487472585 704.9256632413678 246.96141487472585 699.675 249.28155798369409 695 C 251.60170109266235 690.325 253.6125 686.1625 253.75 685.75 C 253.8875 685.3375 252.65 685 251 685 C 248.9528132161695 685 248.18690232223383 685.3970055067373 248.5884752196822 686.25 C 248.91213659050746 686.9375 248.42824107034482 689.975 247.51315184154308 693 C 246.59806261274133 696.025 245.54574876388432 698.1249080624805 245.17467662186084 697.6664623610678 C 244.8036044798374 697.2080166596552 243.97747111322974 694.5080166596551 243.33882469606613 691.6664623610678 L 242.17764939213222 686.5 L 243.33882469606613 685.765312774517 C 243.97747111322974 685.3612348005014 242.025 685.0036983925199 239 684.9707874234472 Z " class="odd" fill="#ff6600"></path><path d="M 201 687 C 202.23126394496074 687 203.2285007138712 687.8648280619192 203.59448418575747 689.25 L 204.18896837151493 691.5 L 203.59448418575747 695.25 C 203.22335475873496 697.5910805277538 202.24857628146867 699.3757118592656 201 700 C 199.5185185185185 700.7407407407408 198.61111111111111 700.6111111111111 197.5 699.5 C 196.675 698.675 196 697.1 196 696 C 196 694.9 196.675 692.425 197.5 690.5 C 198.5 688.1666666666666 199.66666666666666 687 201 687 Z " class="even" fill="#ffffff"></path><path d="M 224.25 687.3277205151271 C 224.94802852150397 687.5107271284396 225.63602371589383 689.6082187467246 225.8080406352346 692.0777205151271 C 225.97746298461362 694.5099742318072 225.8649629846136 697.5125 225.5580406352346 698.75 C 225.24724223091786 700.0031281156948 224.22465520109597 701.0073842361801 223.25 701.0166666666667 C 222.2875 701.0258333333334 220.93 700.4633333333334 220.23333333333335 699.7666666666667 C 219.53666666666666 699.0699999999999 218.97584879386358 697.375 218.9870713937709 696 C 218.9982939936782 694.625 219.9057939936782 692.0375 221.00373806043757 690.25 C 222.1016821271969 688.4625 223.5625 687.1474742318072 224.25 687.3277205151271 Z " class="even" fill="#ffffff"></path><path d="M 176.5 689.9555555555555 C 177.05 689.9616666666667 178.07 690.5366666666666 178.76666666666665 691.2333333333333 C 179.46333333333334 691.9300000000001 180.04050096432908 693.175 180.04926140221278 694 C 180.05802184009647 694.825 179.26302184009648 696.2814235861513 178.28259473554613 697.2364968581139 C 176.8636090109657 698.6187876297107 176.24162864687875 698.7207763217323 175.23333333333335 697.7364968581139 C 174.53666666666666 697.0564235861513 173.96166666666667 695.375 173.95555555555558 694 C 173.94944444444445 692.625 174.29444444444445 691.15 174.72222222222223 690.7222222222222 C 175.15 690.2944444444445 175.95 689.9494444444445 176.5 689.9555555555555 Z " class="even" fill="#ffffff"></path><path d="M 129.72235992376514 709.289291099205 L 124.94471984753028 708.5 L 121.68924649410532 711.5 C 119.89873614972159 713.15 117.54867418402728 715.7401898076781 116.46688657034018 717.2559773503957 L 114.5 720.0119547007914 L 111 719.005068048279 C 109.075 718.4512803893972 104.125 717.9963288874699 100 717.9940647106629 C 95.875 717.9918005338559 89.8 718.6814257742998 86.5 719.5265652449826 C 83.2 720.3717047156655 77.35 722.5464509935289 73.5 724.3593347513456 C 69.5567610822489 726.2161227480163 63.87991907235809 730.0677430617751 60.5 733.1795668436998 C 56.88349626920581 736.509209381281 53.14007356090443 741.2453183550541 51.07664300129481 745.1018233245572 C 48.32415310707085 750.2461645800198 47.6652973357561 752.57782187953 47.71457844215714 757 C 47.74828928391928 760.025 48.43310779792707 764.075 49.23639736217447 766 C 50.03968692642187 767.925 52.00261597803382 771.0132970931755 53.59846192131214 772.8628824292789 C 55.19430786459046 774.7124677653823 58.75 777.4880112748019 61.5 779.0307568946557 C 64.25 780.5735025145095 69.2 782.5336024356403 72.5 783.3865344971684 C 75.8 784.2394665586964 80.975 785.1548845395449 84 785.4207966768317 C 87.025 785.6867088141184 89.6125 785.9258117998122 89.75 785.9521366450401 C 89.8875 785.978461490268 88.64201821632412 789.7125 86.98226270294248 794.25 C 85.32250718956084 798.7875 82.73500718956085 804.2495963262334 81.23226270294248 806.387991836074 C 79.72951821632411 808.5263873459147 77.375 811.1246597204597 76 812.1619304461738 C 74.625 813.1992011718879 71.1375 814.4871048456547 68.25 815.0239386100998 C 65.35266450567593 815.562600954785 63.22406328625485 816.4481265725098 63.5 817 C 63.775000000000006 817.55 65.4625 818.0043836418369 67.25 818.0097414263042 C 69.0375 818.0150992107716 72.975 817.2871578087652 76 816.39209386629 C 79.025 815.4970299238149 83.4125 813.467646281978 85.75 811.8823524399859 C 88.0875 810.2970585979937 90.9019462339761 807.5375 92.00432496439134 805.75 C 93.1067036948066 803.9625 95.5934856536457 798.675 97.53050709514493 794 L 101.05236426150715 785.5 L 109.77618213075357 783.7451089624226 C 114.57428195883911 782.779918891755 121.3125 780.642418891755 124.75 778.9951089624226 C 128.20707426402922 777.3384187045099 131.4922060713045 774.9945467350506 132.1014571229134 773.75 C 132.70725854051574 772.5125 132.968103270848 770.6 132.68111207920725 769.5 C 132.39412088756654 768.4 130.66096518225552 766.825 128.8296549562939 766 C 126.76370875001638 765.0692971643928 122.65351417803595 764.5249721831784 118 764.5657974026756 C 112.74584549240859 764.6118920319897 109.45193877020932 765.183840582032 107 766.4758193252953 C 105.075 767.4901428112646 101.025 770.6752465912276 98 773.553827725213 L 92.5 778.7876116051864 L 86.25 776.8938058025932 C 82.8125 775.8522126111669 77.1875 773.0762904915637 73.75 770.7250899812526 C 68.95608642204635 767.446122111908 66.84263632698718 765.1746272935158 64.67837973479888 760.9750899812526 C 62.40588754985893 756.5655316336297 61.96800503397773 754.6728885811133 62.42837973479888 751.25 C 62.74277088065949 748.9125 63.85581973003373 745.3125 64.90182162229718 743.25 C 65.94782351456062 741.1875 68.79819533936953 737.475 71.23598123298362 735 C 73.67376712659771 732.525 78.33044739656398 729.0855438857546 81.58415961068644 727.356764190566 C 84.91320304721947 725.58795910925 90.56086328870086 723.6905923065234 94.5 723.0176067809177 C 98.5154098894815 722.3315902922686 103.4186650710476 722.1334155916168 106 722.5528116656106 C 108.475 722.9549312323095 111.9625 723.8950520666511 113.75 724.6419690752589 C 115.5375 725.3888860838665 118.2375 725.9991953621865 119.75 725.99821191597 C 121.90237576453573 725.9968124146133 123.07494398291186 725.0732113234412 125.1456356004025 721.74821191597 C 126.60073518062387 719.4116953621865 129.41323518062387 716.0375 131.3956356004025 714.25 C 133.37803602018113 712.4625 134.8875 710.7926809946423 134.75 710.539291099205 C 134.6125 710.2859012037678 132.35006196569432 709.7234012037678 129.72235992376514 709.289291099205 Z " class="odd" fill="#ff6600"></path><path d="M 145.83061845791062 711.791968036707 C 143.9032041662195 711.2064277821906 142.6782353808098 711.9416908625187 138.75 716.041968036707 C 136.1375 718.7688856165181 132.8793960120668 723.3625 131.509768915704 726.25 C 130.14014181934118 729.1375 129.01514181934118 732.5125 129.009768915704 733.75 C 129.00394879792844 735.0905034286044 129.9094965713956 736.4538200484275 131.25 737.1227036374584 C 132.87454843766508 737.9333198331001 135.02888159681865 737.9540552190914 139 737.197297133246 C 142.025 736.6208365553272 145.2875 735.8906199184709 146.25 735.5745934957877 C 147.47268273146403 735.1731388986956 147.99338231879403 735.527317268536 147.9780379995091 736.75 C 147.9659588992391 737.7125 147.0659588992391 740.4125 145.9780379995091 742.75 L 144 747 L 139 747 C 136.25 747 132.425 747.675 130.5 748.5 C 128.16666666666666 749.5 127 750.6666666666666 127 752 C 127 753.1 127.44999999999999 754.9 128 756 C 128.55 757.1 130.6875 758.4474903795187 132.75 758.9944230655973 C 134.8125 759.5413557516758 137.7375 759.9913557516758 139.25 759.9944230655973 C 140.8754322027271 759.9977194033321 143.8402018500829 758.56873189438 146.5 756.5 L 151 753 L 155 756.5 C 157.7415623137947 758.8988670245703 159.65070595498693 761.8090041739201 161.06829773812342 765.75 C 162.2058614940913 768.9125 162.9933614940913 773.1527944950192 162.81829773812342 775.1728766555982 C 162.64323398215555 777.1929588161772 162.85000000000005 779.2179588161772 163.27777777777789 779.6728766555982 C 163.70555555555575 780.1277944950192 164.04305555555575 779.4875 164.02777777777789 778.25 C 164.01250000000005 777.0125 164.45 775.775 165 775.5 C 165.55 775.225 166 775.675 166 776.5 C 166 777.325 166.45 778 167 778 C 167.55 778 168.50571750090998 776.3125 169.12381666868885 774.25 C 169.74191583646774 772.1875 169.96257044963068 768.925 169.6141602534954 767 C 169.26575005736012 765.075 167.86003255645014 761.5875 166.49034358480654 759.25 C 165.10745805329714 756.8899788588323 161.8173534156379 753.5547220491283 159.09187738254894 751.75 L 154.18375476509786 748.5 L 156.585054727459 743.5 C 157.90576970675767 740.75 159.2584781052772 736.925 159.59107339083573 735 C 159.9236686763943 733.075 159.64716776619932 729.475 158.9766269237358 727 C 158.24380430822782 724.2951148408519 156.40963732406445 721.2035281704959 154.37873087781014 719.25 C 152.52042889501456 717.4625 150.1 716 149 716 C 147.54071677793883 716 147.1569750708866 715.5268728193035 147.58061845791062 714.25 C 147.99197968850382 713.0101459379562 147.4818337505476 712.2936002114188 145.83061845791062 711.791968036707 Z " class="odd" fill="#ff6600"></path><path d="M 260.5 713.1199707495612 C 257.75 713.1376725553563 254.0165809735505 713.6804207845303 252.20351327455666 714.3260779255033 C 250.3904455755628 714.9717350664765 247.12794557556282 716.9625 244.95351327455666 718.75 C 242.7790809735505 720.5375 241 722.675 241 723.5 C 241 724.325 241.9 725.225 243 725.5 C 244.3303336891188 725.8325834222796 246.2556243329023 724.8764060832256 248.75 722.6443170321772 C 250.8125 720.7986913998747 253.5125 718.7736913998747 254.75 718.1443170321772 C 255.9875 717.5149426644797 258.8 717 261 717 C 263.2 717 266.14211983731724 717.5625 267.5380440829273 718.25 C 268.9339683285373 718.9375 270.73396832853723 720.9625 271.5380440829273 722.75 C 272.38504389442704 724.6329222928186 272.767139015787 727.3670777071814 272.4464117184293 729.25 C 272.1419381635654 731.0375 271.1294381635654 734.201655106686 270.1964117184293 736.2814557926354 C 269.2633852732932 738.3612564785849 268.275 740.0618266197521 268 740.0605005507848 C 267.725 740.0591744818174 264.575 738.6831589581451 261 737.0026882759573 C 257.0914715789276 735.1654386473951 252.57417940142716 733.8581230632759 249.66960402247454 733.723643517808 C 245.8238948872397 733.545590222908 244.5463565731158 733.9077043980958 243.40262078613557 735.5 C 242.61249779378812 736.6 241.97367598367458 738.7375 241.983016763661 740.25 C 241.99272556922176 741.8220923126291 243.17790768737083 744.3122707091155 244.75 746.0636903797806 C 246.2625 747.74872008866 249.075 749.6154323204948 251 750.2119397838583 C 252.925 750.8084472472216 256.525 751.3762805275367 259 751.4737915178916 L 263.5 751.6510842276282 L 266.2813228432513 761.0755421138141 C 267.81105040703955 766.2589939512163 269.92914132506377 775.9 270.9881915499718 782.5 C 272.04724177487986 789.1 273.9456464954168 797.3783428367426 275.2068687067205 800.8963174149835 C 276.8314806940965 805.4279087712652 278.81189037687557 808.5690820442428 282 811.6710589464096 C 284.57276672839384 814.1743175885388 288.42723327160616 816.6862535907817 291 817.5363126116667 C 293.475 818.3540688635146 297.525 818.993462543655 300 818.9571874564232 C 302.475 818.9209123691913 306.4878311473371 818.1282053830831 308.9174025496379 817.1956163761827 C 311.3469739519388 816.2630273692822 313.5710450337869 814.825 313.8597827315225 814 C 314.2637328459267 812.8458076413403 313.9369670909133 812.687875165785 312.4423801818846 813.314940779172 C 311.37407108184806 813.7631582077166 308.025 814.8460758838555 305 815.7214245039252 L 299.5 817.3129674495065 L 295.5698248952599 814.9064837247532 C 293.4082285876529 813.582917676139 290.63395246236166 811.15 289.4047668390572 809.5 C 288.17558121575263 807.85 286.248362002109 803.575 285.1220574754046 800 C 283.99575294870016 796.425 281.6849676323026 785.175 279.9869789945211 775 C 278.2889903567396 764.825 276.2463226091847 754.475 275.447717333288 752 L 273.9957077407485 747.5 L 277.98343198330576 743.5 C 280.1766803167122 741.3 282.4336763189378 737.925 282.9989786549182 736 C 283.56428099089857 734.075 283.76763460669315 731.15 283.4508755789062 729.5 C 283.1341165511193 727.85 282.4676809578156 725.375 281.96990759378707 724 C 281.47213422975847 722.625 279.36277046314467 720.261537671745 277.28243255686755 718.7478614927668 C 275.20209465059037 717.2341853137884 271.7 715.3414370846144 269.5 714.5417543168246 C 267.3 713.7420715490347 263.25 713.1022689437661 260.5 713.1199707495612 Z " class="odd" fill="#ff6600"></path><path d="M 230.25 714.8878966531702 C 228.34118580359018 714.1346389924964 227.88627139880327 714.3876029955027 227.25 716.5561050040892 C 226.64185569627114 718.6287459347153 226.0271476790962 719.017152129839 224 718.6096330188257 C 222.625 718.3332156746816 219.7 717.8253652298357 217.5 717.4810764747235 C 215.3 717.1367877196112 210.575 717.4346542932967 207 718.1430021940243 C 203.24710095530813 718.8865988821225 199.33776498044656 720.3964273495627 197.75 721.7154537340374 C 196.2375 722.9719541803169 194.98533236900425 724.7875 194.96740526445387 725.75 C 194.94947815990352 726.7125 195.73697815990352 728.2342737424741 196.71740526445387 729.1317194277203 C 197.69783236900426 730.0291651129664 199.625 731.1082834279665 201 731.5297601277205 L 203.5 732.2960814000005 L 199.5 733.702380932328 C 197.3 734.4758456751082 193.7 736.5758457841482 191.5 738.3690478413059 C 188.8256045316588 740.5489257756162 186.91621334829853 743.2649767076063 185.7384289197595 746.5647076089781 C 184.76956482562724 749.2791184240401 183.97805161954744 754.2 183.97951068402665 757.5 C 183.98099321899247 760.8530837444004 184.87040938647198 766.1469162555996 185.99562924976797 769.5 C 187.1351815650481 772.8957935412436 190.2858018572281 778.5048249190627 193.25454748550084 782.4230108287904 C 196.3437895611083 786.5002293877363 200.9663768469145 791.0373036483953 204.5 793.4604342452524 C 207.8 795.7233611684716 214.325 798.9823380275703 219 800.7026050432496 C 225.28630781088458 803.0157874983237 230.1043437519005 804.019665248882 237.5 804.5572334878461 C 244.82013340437402 805.0893121960992 248.57194663825038 804.9282058803333 251.5 803.9560605935353 C 253.7 803.2256368728154 257.075 801.206926073473 259 799.4700365949968 C 260.925 797.7331471165207 263.78825882879573 793.4293431869062 265.3627973973238 789.9060278625201 L 268.2255947946476 783.5 L 266.3627973973238 779.2317233924955 C 265.3382588287957 776.8841712583679 263.9375 774.9716712583679 263.25 774.9817233924955 C 262.5625 774.991775526623 260.99289394990205 777.5875 259.7619865553379 780.75 C 258.5310791607737 783.9125 255.70303942533394 788.975 253.47745380991623 792 C 250.6806571646385 795.8013859333724 248.12903414987773 798.0404681121088 245.21546725457836 799.25 C 242.89696026456025 800.2125 238.975 801 236.5 801 C 234.025 801 229.4125 800.0328594204458 226.25 798.8507987121018 C 223.0875 797.6687380037579 218.25 795.2697815559362 215.5 793.5197843836095 C 212.75 791.7697872112826 208.0608517022616 787.6744277908367 205.0796704494702 784.4189856715076 C 201.89590206311647 780.9423189329724 198.28543705280583 775.5084718485998 196.3296704494702 771.25 C 193.9673992434393 766.1064080128563 193 762.5473048187198 193 759 C 193 756.25 193.7875 752.3349105964085 194.75 750.2998013253521 C 195.7125 748.2646920542958 198.525 744.9889526470783 201 743.0203804204245 C 204.00285577831974 740.6319608301832 207.49619229557368 738.9946512749875 211.5 738.0990823305774 C 214.82248857363967 737.3559103791824 219.73125952196693 737.0072413969891 222.5 737.3177546123969 C 225.25 737.6261660901596 228.625 738.7478031091788 230 739.8102813213284 C 231.375 740.8727595334778 233.3053894813025 742.8125964138766 234.28975440289446 744.1210299444365 C 235.27411932448643 745.4294634749964 236.17411932448644 747.9356101808187 236.28975440289446 749.6902448462638 C 236.4446602482046 752.040770048505 235.71035561423497 753.7182803172662 233.5 756.063405850135 C 231.85 757.8140097368191 228.925 759.9681812995848 227 760.8504537673921 L 223.5 762.4545855270416 L 227 762.789842906729 C 228.925 762.9742344655571 232.3 762.4383597834692 234.5 761.5990102798671 C 236.7 760.7596607762649 239.47605942348508 759.0440132118213 240.66902094107797 757.7864601366589 C 241.8619824586709 756.5289070614965 243.12237277719586 753.925 243.46988831557795 752 C 243.97766787749575 749.1872461840338 243.55176748753993 747.6641362468479 241.30086737449994 744.2431220369083 C 239.45714145473556 741.4409485711878 236.62048294432884 738.9929848599039 233 737.0796858917363 C 229.975 735.4810788915921 223.675 733.076287066556 219 731.7357040583228 C 214.325 730.3951210500895 209.375 728.7208876657338 208 728.0151854264213 L 205.5 726.7320904458531 L 208.25 724.3660452229266 C 209.7625 723.064720350317 212.6875 721.7033404449411 214.75 721.3407565443135 C 216.8125 720.978172643686 221.425 721.1765006303211 225 721.7814854035028 C 228.575 722.3864701766844 231.62242147920213 722.7956297317432 231.7720477315603 722.6907288591892 C 231.92167398391845 722.5858279866352 232.14667398391845 720.9870534939265 232.2720477315603 719.1378966531702 C 232.4532680283184 716.4650504015649 232.03873266099393 715.593767650109 230.25 714.8878966531702 Z " class="odd" fill="#ff6600"></path><path d="M 181.25 715.9554746489301 C 178.56617026532928 715.9303170781621 176.00179872674013 716.4740460953541 175.35466551924887 717.2054746489301 C 174.72473155483576 717.9174635920185 173.2168122173837 721.65 172.00373365824433 725.5 C 170.78597577948656 729.3648509594824 169.55209874177007 736.5309059092368 169.24879628448886 741.5 C 168.8445736561635 748.1224991771231 169.2014449462956 753.0899423874961 170.5997281454934 760.3041949189569 L 172.5 770.1083898379138 L 176.25 772.5541949189569 C 178.3125 773.8993877135306 180.45 775 181 775 C 181.55 775 182.0050171440363 774.8875 182.01114920896953 774.75 C 182.01728127390277 774.6125 181.11226412986647 770.9 180 766.5 C 178.88773587013353 762.1 177.98937021511043 755.8 178.00363187772646 752.5 C 178.0178935403425 749.2 178.71645500895372 743.575 179.5559906968625 740 C 180.39552638477127 736.425 182.1888748957581 730.0125 183.5412096101665 725.75 C 184.89354432457492 721.4875 186 717.55 186 717 C 186 716.45 183.8625 715.9799635920185 181.25 715.9554746489301 Z " class="odd" fill="#ff6600"></path><path d="M 309.25 718.0110056638812 C 308.5625 718.0049525487465 305.59334481537053 722.3875 302.6518773674901 727.75 C 299.7104099196096 733.1125 295.68145262340875 740.875 293.6986389314881 745 C 291.7158252395675 749.125 289.3550296758652 755.65 288.4524265677052 759.5 C 287.40294818572954 763.976487765307 287.0255888123645 768.3926341760198 287.40566500370716 771.75 C 287.7325492516682 774.6375 288.98205274081454 779.5875 290.18233942403225 782.75 C 291.38262610724996 785.9125 294.01685478134283 790.3 296.0361809220163 792.5 C 298.05550706268974 794.7 300.59646888053976 796.725 301.68276273946066 797 C 303.3658900759212 797.4260909824036 303.56269284868245 797.1304549120181 303.0141481316736 795 C 302.6601162384698 793.625 301.4236494652956 791.15 300.2664441912865 789.5 C 299.1092389172774 787.85 297.6868875066304 784.475 297.10566327873755 782 C 296.52443905084476 779.525 296.0488919552961 774.8 296.0488919552961 771.5 C 296.04889195529614 768.2 296.5122929992993 763.475 297.07867205308094 761 C 297.6450511068626 758.525 300.3072378608021 752 302.994642617391 746.5 C 305.68204737397986 741 310.1591956202638 733.125 312.9438609424665 729 C 315.7285262646691 724.875 318.01360493932714 721.05 318.0218135528178 720.5 C 318.03002216630836 719.95 316.3409721860796 719.1674525487465 314.26836915230945 718.7610056638812 C 312.1957661185392 718.3545587790157 309.9375 718.0170587790158 309.25 718.0110056638812 Z " class="odd" fill="#ff6600"></path><path d="M 146.25 721.0461304161113 C 146.6625 721.0207586872501 147 722.35 147 724 C 147 725.8977490004679 145.9896032504289 728.0735136159616 144.25 729.92178537307 C 142.7375 731.5287673282585 140.4875 733.1037673282584 139.25 733.42178537307 L 137 734 L 137.9876910036504 731.25 C 138.53092105565815 729.7375 140.44342105565815 726.8332586872501 142.2376910036504 724.7961304161113 C 144.0319609516427 722.7590021449726 145.8375 721.0715021449726 146.25 721.0461304161113 Z " class="even" fill="#ffffff"></path><path d="M 255.6206707063077 739.25 C 256.512039594777 739.9375 257.90253349034117 741.85 258.7106571408948 743.5 C 259.92807087625044 745.9856748864614 259.9502433108045 746.6303846543768 258.8399864345871 747.2605188874397 C 258.10299389556417 747.6788042755315 256.15 747.9038042755316 254.5 747.7605188874397 C 252.12972236558394 747.5546848566926 251.4392347395092 746.9752313620133 251.2105140432747 745 C 251.05129676707583 743.625 251.61379676707583 741.4875 252.4605140432747 740.25 C 253.7467339119334 738.3701551778764 254.2666220682544 738.2056417654869 255.6206707063077 739.25 Z " class="even" fill="#ffffff"></path><path d="M 139.5 750.9908207936378 C 140.05 751.0324655703133 139.375 751.9706692122744 138 753.0757177757737 C 136.625 754.1807663392729 135.05 755.0508239830376 134.5 755.0091792063622 C 133.95 754.9675344296867 134.625 754.0293307877256 136 752.9242822242263 C 137.375 751.8192336607271 138.95 750.9491760169624 139.5 750.9908207936378 Z " class="even" fill="#ffffff"></path><path d="M 120.75 768.0037380604376 C 122.02828167981302 768.0016143741374 123.22695166804533 768.7557809157009 123.52550337118656 769.75 C 123.81453022533917 770.7125 123.70203022533917 772.322795577398 123.27550337118656 773.3284346164401 C 122.84897651703395 774.334073655482 120.7 775.9779143117233 118.5 776.9814138525319 C 116.3 777.9849133933404 112.25 779.1114838733533 109.5 779.4849038081162 L 104.5 780.1638491440486 L 108.5 775.9626936453401 C 110.7 773.6520581210503 113.85 770.9168741908363 115.5 769.8845071337533 C 117.15 768.8521400766704 119.5125 768.0057939936783 120.75 768.0037380604376 Z " class="even" fill="#ffffff"></path><path d="M 166 780 C 165.45 780 164.8002202195453 781.0125 164.5560449323229 782.25 C 164.31186964510047 783.4875 164.55835680794385 785.175 165.10379418308594 786 C 165.8661170715687 787.1530496655723 165.96880397770298 786.9795744983586 165.54774925076305 785.25 C 165.24648716284338 784.0125 165.45 782.775 166 782.5 C 166.55 782.225 167 781.55 167 781 C 167 780.45 166.55 780 166 780 Z " class="odd" fill="#ff6600"></path><path d="M 186 784 C 185.45 784 185 784.45 185 785 C 185 785.55 185.45 786 186 786 C 186.55 786 187 785.55 187 785 C 187 784.45 186.55 784 186 784 Z " class="odd" fill="#ff6600"></path><path d="M 317 811 C 315.9 811 315 811.45 315 812 C 315 812.55 315.675 813 316.5 813 C 317.325 813 318.225 812.55 318.5 812 C 318.775 811.45 318.1 811 317 811 Z " class="odd" fill="#ff6600"></path><path d="M 53 813 C 52.45 813 52 813.45 52 814 C 52 814.55 52.45 815 53 815 C 53.55 815 54 814.55 54 814 C 54 813.45 53.55 813 53 813 Z " class="odd" fill="#ff6600"></path></g></svg>